#!OML:ASF F:\VICON\USERDATA\INSTALL\rory3\rory3.ASF
:FULLY-SPECIFIED
:DEGREES
44
root 0.7505774263486951 17.831974141522736 11.47609472961663 -1.1700280432913936 4.1832111051548955 0.7878588596800329
lfemur 12.65476090248099 -3.8362022680951995 -24.70994603704367
ltibia 20.25783339470547
lfoot -13.918198430346173 -2.6167028556691476
ltoes -15.803553287151557
rfemur -24.89176961357326 4.6656127618201495 19.5796702258897
rtibia 17.800988620802816
rfoot -10.03424328674642 -12.499877975492492
rtoes -2.7380520513699054
lowerback 9.972030309116866 -1.5853230186043705 -3.7434035425495615
upperback -0.014559378179718682 -2.400825153794923 1.6979626133132621
thorax -5.755206526775094 -1.0386399441977776 4.931170430791864
lowerneck -17.289290491335414 -3.3149044212760304 -2.4558062005095733
upperneck 20.93199990408944 -4.445534516870651 2.320614244509838
head 9.502710014664254 -1.9851352800174844 0.5781492357681772
lclavicle 2.9911140335853723e-16 5.53145615542192e-17
lhumerus -21.261718904771165 -5.0438677064469495 80.96082264958399
lradius 31.22152127804544
lwrist 10.169004925824723
lhand -29.273600542800246 22.391318627741907
lfingers 7.125020000000001
lthumb -2.746240079710403 52.04917556877091
rclavicle 2.991114032082756e-16 5.531456144665805e-17
rhumerus -34.533882289396516 -22.16859412590936 -74.14480967214367
rradius 31.978268211128437
rwrist 3.2629725850880527
rhand -18.225581826424964 23.79541642939455
rfingers 7.125020000000001
rthumb 7.929669576987994 -6.421732827326352
45
root 0.7016117508072426 17.759975983754533 12.429961889784455 -1.5165560632797208 3.871050713864225 0.5794171459287338
lfemur 12.688384329638502 -4.565149502575707 -24.27494527574145
ltibia 24.279402541538197
lfoot -12.05490956489631 -3.4892213613095504
ltoes -20.573793222741962
rfemur -25.235745835642085 4.285030812877916 20.40459349936121
rtibia 22.03100334498298
rfoot -8.028392308567433 -10.632169445441399
rtoes -4.6648648407628155
lowerback 9.877166166716872 -1.5228149307071515 -3.3438614968655997
upperback -0.036941301307468456 -2.329333198400409 1.7617938932784065
thorax -5.74830051621344 -1.0200684214968418 4.721709289849693
lowerneck -17.281148240294797 -3.2049830169269256 -2.370113922780214
upperneck 21.066635823509625 -4.241391075497585 2.163877382275277
head 9.56337894515415 -1.9156175088761738 0.5467244135999392
lclavicle 2.991114033612758e-16 5.5314561554859344e-17
lhumerus -21.512405997891406 -4.830234671576298 81.25130768780744
lradius 31.708525275782666
lwrist 10.275943310412874
lhand -29.508612303408277 21.375433809228642
lfingers 7.125020000000001
lthumb -2.8765707530012126 51.246573222964045
rclavicle 2.9911140320560865e-16 5.531456144342046e-17
rhumerus -35.601356327913464 -23.53280364949496 -73.23076811983265
rradius 30.665347516387147
rwrist 4.258759466809598
rhand -18.262725757213722 23.66131425039601
rfingers 7.125020000000001
rthumb 7.879428822385432 -6.597281021052686
46
root 0.6315632867909624 17.799384832369082 13.568035888048792 -1.9983596168057098 3.673325127202266 -0.3238485303956744
lfemur 11.664143910720732 -5.389709968955774 -23.159223052876417
ltibia 29.721303887580923
lfoot -7.23589950772635 -6.375572814771727
ltoes -23.988832729197444
rfemur -24.740498394568995 4.234131330778997 21.933261686812422
rtibia 24.56199610147783
rfoot -5.930626189432605 -9.278772286697187
rtoes -3.770914627894978
lowerback 10.065220664729637 -1.5136061431471597 -2.7593846626591887
upperback -0.10686941563589772 -2.321420712173552 1.9619463282771514
thorax -5.863298945857087 -1.0128682827901343 4.744540403096729
lowerneck -17.266402353770943 -3.108050085087319 -2.3287260161028644
upperneck 21.228195198496667 -4.065463057843583 2.033702658416474
head 9.630681192489686 -1.854571943025549 0.5146421890165194
lclavicle 2.9911140336312253e-16 5.531456155489895e-17
lhumerus -22.38554313526821 -4.096209593132354 81.51855658713203
lradius 32.04743582604277
lwrist 10.364149580874312
lhand -30.50657856836572 18.10365479747762
lfingers 7.125020000000001
lthumb -3.7218213887772404 48.3546746267916
rclavicle 2.991114032072746e-16 5.5314561443404095e-17
rhumerus -36.67056717358428 -24.800316402011955 -72.18382625251682
rradius 28.890584997190413
rwrist 5.6409786856383
rhand -18.24376563775799 23.356617584220842
rfingers 7.125020000000001
rthumb 7.9016144606343754 -6.914064179265037
47
root 0.5803724392939567 17.840323215948644 14.457626884376356 -2.382277378448183 3.683446482605997 -1.3170834553975344
lfemur 9.255956258358871 -5.280637050408081 -21.59716646280728
ltibia 37.27589930660073
lfoot -0.15517613354713067 -9.838335891262016
ltoes -20.61118604500349
rfemur -23.080973298971386 4.2395925881078895 23.786765778385277
rtibia 26.345003794467097
rfoot -4.856886898429965 -7.681259079309849
rtoes 0.010484707790034964
lowerback 10.130936377710805 -1.462947886659448 -1.5842324494492457
upperback -0.15038904842039674 -2.122627464695345 2.1510265611929467
thorax -5.9616248307278905 -0.955130127736294 4.266085708360205
lowerneck -17.21587150594715 -3.042316755587747 -2.2740048904606844
upperneck 21.361440912902346 -3.9527819312159065 1.902617468450046
head 9.685624076931775 -1.8216880111660054 0.4727734017601699
lclavicle 2.9911140336942514e-16 5.5314561558169854e-17
lhumerus -23.59655806060541 -2.9394082478207886 81.67798143559666
lradius 31.79229368593358
lwrist 10.44760213885874
lhand -30.780160013983078 17.210857917986726
lfingers 7.125020000000001
lthumb -4.018450731555156 47.43935980571487
rclavicle 2.991114032054182e-16 5.5314561440808755e-17
rhumerus -37.2425447788885 -25.64525617698416 -71.3194636543384
rradius 26.98104750131028
rwrist 6.958563712572147
rhand -18.198323692094448 22.900595217412686
rfingers 7.125020000000001
rthumb 7.9218425361858085 -7.410316189467941
